<svg width="25" height="23" viewBox="0 0 25 23" fill="none" xmlns="http://www.w3.org/2000/svg">
<path d="M9 14V15C9 16.1058 9.89417 17 11 17H14C15.1058 17 16 16.1058 16 15V14H24V19.5C24 20.8785 22.8785 22 21.5 22H3.5C2.12145 22 1 20.8785 1 19.5V14H9ZM9.125 0.5H15.875C17.0473 0.5 18 1.4527 18 2.625V5H21.5C22.8785 5 24 6.12145 24 7.5V11.5H1V7.5C1 6.12145 2.12145 5 3.5 5H7V2.625C7 1.4527 7.9527 0.5 9.125 0.5ZM9.125 1.75C8.64261 1.75 8.25 2.14261 8.25 2.625V5H16.75V2.625C16.75 2.14261 16.3574 1.75 15.875 1.75H9.125Z" fill="black" stroke="black"/>
</svg>
