<svg width="31" height="22" viewBox="0 0 31 22" fill="none" xmlns="http://www.w3.org/2000/svg">
<path d="M15.5 0.5C15.1203 0.5 14.7453 0.565625 14.3891 0.692187L1.24061 5.44062C0.795302 5.60469 0.499989 6.02656 0.499989 6.5C0.499989 6.97344 0.795302 7.39531 1.24061 7.55938L3.95468 8.53906C3.18593 9.74844 2.74999 11.1781 2.74999 12.6828V14C2.74999 15.3312 2.24374 16.7047 1.70468 17.7875C1.39999 18.3969 1.05311 18.9969 0.649989 19.55C0.499989 19.7516 0.457802 20.0141 0.542177 20.2531C0.626552 20.4922 0.823427 20.6703 1.06718 20.7313L4.06718 21.4813C4.26405 21.5328 4.47499 21.4953 4.64843 21.3875C4.82186 21.2797 4.94374 21.1016 4.98124 20.9C5.38436 18.8938 5.1828 17.0938 4.8828 15.8047C4.7328 15.1391 4.53124 14.4594 4.24999 13.8359V12.6828C4.24999 11.2672 4.72811 9.93125 5.5578 8.8625C6.16249 8.13594 6.9453 7.55 7.86405 7.18906L15.2234 4.29688C15.6078 4.14687 16.0437 4.33438 16.1937 4.71875C16.3437 5.10312 16.1562 5.53906 15.7719 5.68906L8.41249 8.58125C7.83124 8.81094 7.3203 9.1625 6.90311 9.59375L14.3844 12.2938C14.7406 12.4203 15.1156 12.4859 15.4953 12.4859C15.875 12.4859 16.25 12.4203 16.6062 12.2938L29.7594 7.55938C30.2047 7.4 30.5 6.97344 30.5 6.5C30.5 6.02656 30.2047 5.60469 29.7594 5.44062L16.6109 0.692187C16.2547 0.565625 15.8797 0.5 15.5 0.5ZM6.49999 18.125C6.49999 19.7797 10.5312 21.5 15.5 21.5C20.4687 21.5 24.5 19.7797 24.5 18.125L23.7828 11.3094L17.1172 13.7188C16.5969 13.9062 16.0484 14 15.5 14C14.9516 14 14.3984 13.9062 13.8828 13.7188L7.21718 11.3094L6.49999 18.125Z" fill="black"/>
</svg>
