<svg width="31" height="22" viewBox="0 0 31 22" fill="none" xmlns="http://www.w3.org/2000/svg">
<path d="M3.5 3.5C3.5 1.84531 4.84531 0.5 6.5 0.5H24.5C26.1547 0.5 27.5 1.84531 27.5 3.5V15.5H24.5V3.5H6.5V15.5H3.5V3.5ZM0.5 17.9C0.5 17.4031 0.903125 17 1.4 17H29.6C30.0969 17 30.5 17.4031 30.5 17.9C30.5 19.8875 28.8875 21.5 26.9 21.5H4.1C2.1125 21.5 0.5 19.8875 0.5 17.9ZM13.6719 8.79688L12.2188 10.25L13.6719 11.7031C14.1125 12.1438 14.1125 12.8562 13.6719 13.2922C13.2312 13.7281 12.5188 13.7328 12.0828 13.2922L9.83281 11.0422C9.39219 10.6016 9.39219 9.88906 9.83281 9.45312L12.0828 7.20312C12.5234 6.7625 13.2359 6.7625 13.6719 7.20312C14.1078 7.64375 14.1125 8.35625 13.6719 8.79219V8.79688ZM18.9219 7.20312L21.1719 9.45312C21.6125 9.89375 21.6125 10.6062 21.1719 11.0422L18.9219 13.2922C18.4813 13.7328 17.7688 13.7328 17.3328 13.2922C16.8969 12.8516 16.8922 12.1391 17.3328 11.7031L18.7859 10.25L17.3328 8.79688C16.8922 8.35625 16.8922 7.64375 17.3328 7.20781C17.7734 6.77188 18.4859 6.76719 18.9219 7.20781V7.20312Z" fill="white"/>
</svg>
